<?xml version="1.0" encoding="UTF-8"?>
<svg width="9px" height="16px" viewBox="0 0 9 16" version="1.1" xmlns="http://www.w3.org/2000/svg" xmlns:xlink="http://www.w3.org/1999/xlink">
    <!-- Generator: Sketch 47.1 (45422) - http://www.bohemiancoding.com/sketch -->
    <title>direction</title>
    <desc>Created with Sketch.</desc>
    <defs></defs>
    <g id="1/-Index" stroke="none" stroke-width="1" fill="none" fill-rule="evenodd">
        <g id="1440+-active" transform="translate(-686.000000, -12145.000000)" fill="#FF2934">
            <g id="Group-11" transform="translate(686.000000, 12142.000000)">
                <path d="M5.5,6 C6.33333333,6 7,5.33333333 7,4.5 C7,3.66666667 6.33333333,3 5.5,3 C4.66666667,3 4,3.66666667 4,4.5 C4,5.33333333 4.66666667,6 5.5,6 L5.5,6 Z M5.60769231,10.3333333 L9,10.3333333 L9,9.03333333 L6.50769231,9.03333333 L5.12307692,6.65 C4.91538462,6.28888889 4.5,6 4.08461538,6 C3.94615385,6 3.87692308,6 3.73846154,6.07222222 L0,7.3 L0,11.0555556 L1.24615385,11.0555556 L1.24615385,8.38333333 L2.7,7.87777778 L0,19 L1.24615385,19 L3.25384615,13.15 L4.84615385,15.3888889 L4.84615385,19 L6.09230769,19 L6.09230769,14.3777778 L4.36153846,11.1277778 L4.84615385,9.03333333 L5.60769231,10.3333333 L5.60769231,10.3333333 Z" id="direction"></path>
            </g>
        </g>
    </g>
</svg>