<?xml version="1.0" encoding="UTF-8"?>
<svg width="29px" height="29px" viewBox="0 0 29 29" version="1.1" xmlns="http://www.w3.org/2000/svg" xmlns:xlink="http://www.w3.org/1999/xlink">
    <!-- Generator: Sketch 47.1 (45422) - http://www.bohemiancoding.com/sketch -->
    <title>phone</title>
    <desc>Created with Sketch.</desc>
    <defs></defs>
    <g id="///-Navigation" stroke="none" stroke-width="1" fill="none" fill-rule="evenodd">
        <g id="Mobile-320/-TopMenu-active" transform="translate(-225.000000, -27.000000)" fill="#FF2934">
            <path d="M252.388889,47.1388889 C250.455556,47.1388889 248.522222,46.8166667 246.588889,46.1722222 C246.105556,46.0111111 245.461111,46.1722222 244.977778,46.4944444 L241.433333,50.0388889 C236.922222,47.7833333 233.216667,43.9166667 230.8,39.4055556 L234.344444,35.8611111 C234.827778,35.3777778 234.988889,34.7333333 234.666667,34.25 C234.183333,32.4777778 233.861111,30.5444444 233.861111,28.6111111 C233.861111,27.6444444 233.216667,27 232.25,27 L226.611111,27 C225.644444,27 225,27.6444444 225,28.6111111 C225,43.7555556 237.244444,56 252.388889,56 C253.355556,56 254,55.3555556 254,54.3888889 L254,48.75 C254,47.7833333 253.355556,47.1388889 252.388889,47.1388889 L252.388889,47.1388889 Z M250.777778,41.5 L254,41.5 C254,33.4444444 247.555556,27 239.5,27 L239.5,30.2222222 C245.783333,30.2222222 250.777778,35.2166667 250.777778,41.5 L250.777778,41.5 Z M244.333333,41.5 L247.555556,41.5 C247.555556,36.9888889 244.011111,33.4444444 239.5,33.4444444 L239.5,36.6666667 C242.238889,36.6666667 244.333333,38.7611111 244.333333,41.5 L244.333333,41.5 Z" id="phone"></path>
        </g>
    </g>
</svg>