<?xml version="1.0" encoding="UTF-8"?>
<svg width="71px" height="41px" viewBox="0 0 71 41" version="1.1" xmlns="http://www.w3.org/2000/svg" xmlns:xlink="http://www.w3.org/1999/xlink">
    <!-- Generator: Sketch 47.1 (45422) - http://www.bohemiancoding.com/sketch -->
    <title>social-vk</title>
    <desc>Created with Sketch.</desc>
    <defs>
        <polygon id="path-1" points="70.5402652 0.324571429 0 0.324571429 0 20.4483965 0 40.5722217 70.5402652 40.5722217"></polygon>
    </defs>
    <g id="///-Symbols" stroke="none" stroke-width="1" fill="none" fill-rule="evenodd">
        <g id="Common/-VK" transform="translate(-29.000000, -43.000000)">
            <g id="social-vk" transform="translate(29.000000, 43.000000)">
                <mask id="mask-2" fill="white">
                    <use xlink:href="#path-1"></use>
                </mask>
                <g id="Clip-2"></g>
                <path d="M70.1677222,36.6715 C70.0820714,36.4866746 70.002619,36.3350952 69.9282381,36.2116905 C68.7043333,34.0084365 66.3641508,31.3031111 62.9127619,28.0962778 L62.8406349,28.0213333 L62.802881,27.9858333 L62.7656905,27.9486429 L62.7301905,27.9486429 C61.163119,26.4542619 60.170246,25.450119 59.7543889,24.9373413 C58.9948016,23.9579921 58.8235,22.965119 59.2393571,21.9615397 C59.5340635,21.2019524 60.6345635,19.5999444 62.5453651,17.149881 C63.5489444,15.8532857 64.3457222,14.8119524 64.9311905,14.0286984 C69.1686508,8.39603175 71.0045079,4.79700794 70.4410159,3.22993651 L70.2229444,2.86423016 C70.0753095,2.64446825 69.6972063,2.44161111 69.085254,2.25903968 C68.4733016,2.07421429 67.6894841,2.04322222 66.7343651,2.16662698 L56.1553651,2.23931746 C55.985754,2.18015079 55.7395079,2.18409524 55.4222619,2.25903968 C55.1033254,2.33173016 54.9427302,2.36892063 54.9427302,2.36892063 L54.7601587,2.46189683 L54.6147778,2.57177778 C54.491373,2.64446825 54.3572619,2.77181746 54.209627,2.95664286 C54.064246,3.13977778 53.9414048,3.35503175 53.8444841,3.5995873 C52.6910159,6.56242857 51.3837143,9.31621429 49.913,11.8626349 C49.0063413,13.381246 48.1740635,14.6975635 47.4150397,15.8115873 C46.6554524,16.9250476 46.0192698,17.746619 45.5064921,18.2723571 C44.9914603,18.7986587 44.5271429,19.2212778 44.1107222,19.5379603 C43.6926111,19.8574603 43.3759286,19.9915714 43.1556032,19.9431111 C42.9352778,19.8923968 42.7262222,19.8439365 42.5306905,19.7954762 C42.1869603,19.5757143 41.9119762,19.2759365 41.7051746,18.8955794 C41.496119,18.5169127 41.355246,18.0390714 41.2825556,17.462619 C41.2098651,16.8878571 41.1659127,16.3925476 41.1523889,15.9766905 C41.1416825,15.5608333 41.147881,14.9708571 41.1721111,14.2135238 C41.1963413,13.4539365 41.2098651,12.9389048 41.2098651,12.6706825 C41.2098651,11.7392302 41.2273333,10.7288889 41.2628333,9.63965873 C41.3000238,8.54986508 41.3310159,7.68715873 41.355246,7.05097619 C41.3794762,6.41479365 41.3924365,5.74142063 41.3924365,5.03029365 C41.3924365,4.32142063 41.3484841,3.76469048 41.2628333,3.35953968 C41.178873,2.95664286 41.0492698,2.56501587 40.8774048,2.18409524 C40.7055397,1.80542857 40.4547857,1.51072222 40.1245794,1.30392063 C39.794373,1.09486508 39.3852778,0.929761905 38.8961667,0.806357143 C37.597881,0.51334127 35.9445952,0.355 33.9374365,0.328515873 C29.3832937,0.280055556 26.4576429,0.575325397 25.1587937,1.21150794 C24.6437619,1.47973016 24.1794444,1.84769048 23.7635873,2.31200794 C23.3235,2.85126984 23.2615159,3.14597619 23.5787619,3.19443651 C25.0489127,3.4147619 26.0879921,3.94106349 26.7021984,4.77277778 L26.9219603,5.21511905 C27.0938254,5.53236508 27.2656905,6.09585714 27.4353016,6.90334127 C27.6066032,7.71138889 27.7170476,8.6050873 27.7649444,9.58443651 C27.8883492,11.3718333 27.8883492,12.9017143 27.7649444,14.1763333 C27.6443571,15.4481349 27.5277143,16.4410079 27.4172698,17.149881 C27.3073889,17.8610079 27.1422857,18.4352063 26.9219603,18.8775476 C26.7021984,19.3181984 26.5545635,19.5864206 26.479619,19.6855952 C26.4069286,19.7825159 26.3455079,19.8439365 26.2970476,19.8681667 C25.9781111,19.9915714 25.6479048,20.0529921 25.3041746,20.0529921 C24.9632619,20.0529921 24.5468413,19.8816905 24.0560397,19.5379603 C23.5674921,19.1947937 23.0592222,18.7237143 22.5329206,18.1224683 C22.0071825,17.5240397 21.4126984,16.6855635 20.7500317,15.6070397 C20.089619,14.5302063 19.4055397,13.2584048 18.6944127,11.7876905 L18.1066905,10.7226905 C17.7387302,10.0380476 17.2372222,9.04066667 16.6010397,7.72885714 C15.9648571,6.41930159 15.4013651,5.15369841 14.9128175,3.92753968 C14.7167222,3.4147619 14.4220159,3.02313492 14.0298254,2.75209524 L13.847254,2.64221429 C13.7238492,2.54529365 13.5283175,2.44161111 13.2595317,2.32947619 C12.9890556,2.21959524 12.7095635,2.14014286 12.4142937,2.09168254 L2.35088889,2.16437302 C1.32307937,2.16437302 0.624912698,2.39765873 0.257515873,2.86197619 L0.109880952,3.08230159 C0.0371904762,3.20570635 0,3.4012381 0,3.67002381 C0,3.94106349 0.0726904762,4.27070635 0.220325397,4.66289683 C1.69047619,8.11428571 3.28628571,11.4445238 5.01395238,14.6513571 C6.73992857,17.8610079 8.23881746,20.4429286 9.51118254,22.401627 C10.7858016,24.3608889 12.0818333,26.2097063 13.4049127,27.9463889 C14.7279921,29.6853254 15.6036587,30.7993492 16.0307857,31.2901508 C16.4601667,31.7809524 16.7971349,32.1460952 17.041127,32.3906508 L17.9590556,33.2730794 C18.5467778,33.8608016 19.4094841,34.5651667 20.5499921,35.3839206 C21.6876825,36.2049286 22.9493413,37.0129762 24.3315873,37.809754 C25.7160873,38.6042778 27.3248571,39.2534206 29.1629683,39.7554921 C30.9988254,40.2575635 32.7862222,40.4598571 34.5251587,40.3606825 L38.7490952,40.3606825 C39.6050397,40.2879921 40.254746,40.0175159 40.6948333,39.5531984 L40.8402143,39.370627 C40.9388254,39.2229921 41.0312381,38.9959048 41.1151984,38.6899286 C41.2008492,38.3845159 41.2448016,38.0475476 41.2448016,37.6801508 C41.2205714,36.6275476 41.3000238,35.6791905 41.4825952,34.8339524 C41.6651667,33.9909683 41.8742222,33.3547857 42.1080714,32.9254048 C42.3413571,32.4960238 42.6028175,32.1353889 42.8980873,31.842373 C43.1905397,31.5476667 43.4001587,31.3712937 43.523,31.309873 C43.6441508,31.2478889 43.7410714,31.2061905 43.8160159,31.1797063 C44.4037381,30.9841746 45.0945794,31.1757619 45.8913571,31.7499603 C46.6864444,32.3269762 47.4325079,33.0352857 48.1323651,33.8805238 C48.8299683,34.7257619 49.6690079,35.6746825 50.6461032,36.7267222 C51.6277063,37.7787619 52.4842143,38.5625794 53.216754,39.0776111 L53.9521111,39.5176984 C54.4429127,39.8129683 55.0790952,40.0811905 55.8629127,40.325746 C56.6461667,40.5719921 57.3308095,40.6339762 57.9185317,40.5105714 L67.3220873,40.3629365 C68.2507222,40.3629365 68.9748095,40.2091032 69.4875873,39.903127 C70.002619,39.5971508 70.3069048,39.2601825 70.4055159,38.8950397 C70.5046905,38.5270794 70.5091984,38.1112222 70.4252381,37.6446508 C70.3373333,37.1803333 70.2516825,36.8546349 70.1677222,36.6715 Z" id="Fill-1" fill="#FFFFFF" mask="url(#mask-2)"></path>
            </g>
        </g>
    </g>
</svg>