<?xml version="1.0" encoding="UTF-8"?>
<svg width="72px" height="72px" viewBox="0 0 72 72" version="1.1" xmlns="http://www.w3.org/2000/svg" xmlns:xlink="http://www.w3.org/1999/xlink">
    <!-- Generator: Sketch 47.1 (45422) - http://www.bohemiancoding.com/sketch -->
    <title>social-instagram</title>
    <desc>Created with Sketch.</desc>
    <defs></defs>
    <g id="///-Symbols" stroke="none" stroke-width="1" fill="none" fill-rule="evenodd">
        <g id="Common/-Instagram" transform="translate(-28.000000, -28.000000)" fill="#FFFFFE">
            <path d="M91.57,99.84 L36.429,99.84 C31.863,99.84 28.16,96.136 28.16,91.566 L28.16,36.429 C28.16,31.862 31.863,28.16 36.429,28.16 L91.57,28.16 C96.139,28.16 99.84,31.862 99.84,36.429 L99.84,91.566 C99.84,96.136 96.139,99.84 91.57,99.84 L91.57,99.84 Z M64,50.215 C56.386,50.215 50.215,56.385 50.215,63.999 C50.215,71.611 56.386,77.785 64,77.785 C71.613,77.785 77.785,71.611 77.785,63.999 C77.785,56.385 71.613,50.215 64,50.215 L64,50.215 Z M91.57,39.186 C91.57,37.664 90.336,36.429 88.811,36.429 L80.542,36.429 C79.02,36.429 77.785,37.664 77.785,39.186 L77.785,47.458 C77.785,48.98 79.02,50.215 80.542,50.215 L88.811,50.215 C90.336,50.215 91.57,48.98 91.57,47.458 L91.57,39.186 Z M91.57,58.483 L85.331,58.483 C85.785,60.248 86.055,62.092 86.055,63.999 C86.055,76.182 76.18,86.055 64,86.055 C51.82,86.055 41.945,76.182 41.945,63.999 C41.945,62.092 42.215,60.248 42.67,58.483 L36.429,58.483 L36.429,88.812 C36.429,90.332 37.664,91.566 39.189,91.566 L88.811,91.566 C90.336,91.566 91.57,90.332 91.57,88.812 L91.57,58.483 L91.57,58.483 Z" id="social-instagram"></path>
        </g>
    </g>
</svg>